# xmcd
#
# Track frame offsets:
#	150
#	26818
#	40486
#	51561
#	76361
#	88140
#	111324
#	136761
#	157550
#	171741
#	192908
#	206808
#
# Disc length: 2906 seconds
# Revision: 0
# Processed by: cddbd v1.5.2PL0 Copyright (c) Steve Scherf et al.
# Submitted via: dBpowerAMP V12.0
#
DISCID=ab0b580c
DTITLE=Andy Statman (Duet with Ricky Skaggs) - Old Brooklyn [CD1 of 2)
DYEAR=2011
DGENRE=Bluegrass
TTITLE0=Old Brooklyn
TTITLE1=My Hollywood Girls
TTITLE2=Pretty Little Gal
TTITLE3=The Lord Will Provide
TTITLE4=Totally Steaming
TTITLE5=Zhok Mahoney
TTITLE6=Eitan And Zaidy
TTITLE7=Since I Met You Baby
TTITLE8=A Brighter Day
TTITLE9=Life Cycles
TTITLE10=Sally Ann
TTITLE11=Y'all Come
EXTD=
EXTT0=
EXTT1=
EXTT2=
EXTT3=
EXTT4=
EXTT5=
EXTT6=
EXTT7=
EXTT8=
EXTT9=
EXTT10=
EXTT11=
PLAYORDER=
